<svg id="Layer_1" data-name="Layer 1" xmlns="http://www.w3.org/2000/svg" viewBox="0 0 445.28 105.11"><defs><style>.cls-1{fill:#4ccc9e;}</style></defs><path class="cls-1" d="M133.21,74.21h3.22v28.06h-3c-8.28-22.31-17-27.6-30.59-27.6-11.5,0-20.24,6.44-20.24,15.87,0,12.88,14,15.64,37,23.46,13.34,4.6,24.61,13.34,24.61,29.43,0,19.09-17.71,33.12-39.33,33.12-10.58,0-27.37-6.44-32.2-6.44-2.53,0-3.22.69-4.14,3.22H65.36V140h3.22C78.7,166.66,89.05,173.33,104,173.33c15.64,0,20.47-7.13,20.47-18.4,0-14.48-23.46-17.94-38.41-24.61-10.58-4.59-19.32-12.18-19.32-26,0-18.4,15.87-32.89,37.72-32.89,10.58,0,21.39,5.75,24.38,5.75C131.6,77.2,132.29,76.28,133.21,74.21Z" transform="translate(-65.36 -71.45)"/><path class="cls-1" d="M217.16,176.55c-31,0-56.12-23.46-56.12-52.66,0-29,25.3-52.44,56.12-52.44s56.12,23.46,56.12,52.44C273.28,153.09,248.21,176.55,217.16,176.55Zm22.31-21.16c2.53-8.51,2.76-20.92,2.76-38.17,0-21.62-3.22-42.55-25.3-42.55-22.54,0-24.84,22.08-24.84,49.22,0,26.21,1.61,49.44,25.07,49.44C227.05,173.33,235.33,169.42,239.47,155.39Z" transform="translate(-65.36 -71.45)"/><path class="cls-1" d="M330.78,74.67v73.59c0,10.35,3.68,20.24,15.64,20.24,14.26,0,23.69-14.95,23.69-30.59v-60H354.93V74.67h43.24v95.44h15.18v3.22H370.57V154.7h-.46c-4.37,12.19-19.32,20.7-34.5,20.7-22.08,0-32.89-10.12-32.89-30.13V77.89H287.31V74.67Z" transform="translate(-65.36 -71.45)"/><path class="cls-1" d="M499.6,74.21h3.22v28.06h-3c-8.28-22.31-17-27.6-30.59-27.6-11.5,0-20.24,6.44-20.24,15.87,0,12.88,14,15.64,37,23.46,13.34,4.6,24.61,13.34,24.61,29.43,0,19.09-17.71,33.12-39.33,33.12-10.58,0-27.37-6.44-32.2-6.44-2.53,0-3.22.69-4.14,3.22h-3.22V140H435c10.12,26.68,20.47,33.35,35.42,33.35,15.64,0,20.47-7.13,20.47-18.4,0-14.48-23.46-17.94-38.41-24.61-10.58-4.59-19.32-12.18-19.32-26,0-18.4,15.87-32.89,37.72-32.89,10.58,0,21.39,5.75,24.38,5.75C498,77.2,498.68,76.28,499.6,74.21Z" transform="translate(-65.36 -71.45)"/></svg>